<svg xmlns="http://www.w3.org/2000/svg" width="718.54" height="124.848" viewBox="0 0 718.54 124.848">
  <g id="COMPANY_LOGO" data-name="COMPANY LOGO" transform="translate(0.5 0.505)">
    <path id="path_7" data-name="path 7" d="M717.19,251.28h-2.478v77.369c0,11.191-3.065,21.3-12,28.8-12.873,10.812-34.993,11.738-49.04,2.022-10.825-7.486-15.247-18.26-15.26-31.054V251.28H626.375c0,26.268-.091,54.205.117,80.473a36.35,36.35,0,0,0,9.691,24.22c10.956,12.351,25.12,16.955,41.227,15.977,11.53-.691,21.729-4.8,29.594-13.6,7.565-8.465,10.277-18.625,10.239-29.776Z" transform="translate(0.297 -250.263)" fill="#fff" stroke="#fff" stroke-width="1"/>
    <path id="path_6" data-name="path 6" d="M638.492,251.337h-2.609V352.73L551.107,251.389c-4.7-.13-9.391-.065-14.647-.065l.182.235,5.961,7.134c-.13,34.211-.078,79.56-.078,113.471h2.713V261.836l93.2,111.384V320.763C638.544,298.551,638.557,273.548,638.492,251.337Z" transform="translate(-27.055 -250.254)" fill="#fff" stroke="#fff" stroke-width="1"/>
    <path id="path_5" data-name="path 5" d="M553.8,251.337h-2.609V352.73L466.417,251.389c-4.7-.13-9.4-.065-14.647-.065l.169.235,5.974,7.134c-.143,34.211-.078,79.56-.078,113.471h2.713V261.836L553.8,373.22V251.337Z" transform="translate(-52.823 -250.254)" fill="#fff" stroke="#fff" stroke-width="1"/>
    <path id="path_4" data-name="path 4" d="M347.5,313.522c0-31.054,18.6-54.179,47.253-60.792,20.19-4.669,39.323-2.23,56.6,9.456,20.02,13.525,27.39,33.194,25.224,56.657-2.8,31.041-27.063,49.849-54.492,53.475-16.316,2.165-31.733-.522-45.845-8.921C356.76,351.854,347.7,334.181,347.5,313.522Zm61.209-60.4c-18.194.7-34.641,10.434-43.849,31.081-5.282,11.856-6.13,24.4-4.643,37.158,2.765,23.7,17.464,43.615,42.493,48.258,22.29,4.161,44.449-5.8,54.883-25.9,8.478-16.342,9.286-33.611,4.969-51.257C456.745,268.668,437.077,253.174,408.709,253.121Z" transform="translate(-84.548 -250.5)" fill="#fff" stroke="#fff" stroke-width="1"/>
    <path id="path_3" data-name="path 3" d="M366.8,290.789a14.461,14.461,0,0,1-.991-3.443,45.439,45.439,0,0,0-7.826-17.1c-7.069-9.3-16.734-14.177-28.016-16.108-15.142-2.609-29.528-.782-42.48,8.047-11.4,7.826-18.142,18.768-21.155,32.059-3.769,16.59-2.739,32.815,5.152,48.1,11.517,22.316,35.215,31,57.674,27.389,13.89-2.23,25.616-8.282,33.911-20.047,1.526-2.165,2.778-4.526,4.291-7.03l2.348,1c-6.717,13.173-16.682,22.59-30.663,26.385-27.1,7.343-51.649,2.061-71.591-18.26C253.73,337.781,250.156,320.1,253.1,301.04c4.578-29.372,28.328-46.08,52.836-49.562,14.8-2.087,29.124-.9,42.714,5.752a57.689,57.689,0,0,1,18.181,14.451,4.082,4.082,0,0,1,1.03,2.322c.091,5.217,0,10.434,0,15.651A13.6,13.6,0,0,1,366.8,290.789Z" transform="translate(-113.561 -250.487)" fill="#fff" stroke="#fff" stroke-width="1"/>
    <path id="path_2" data-name="path 2" d="M267.162,251.337h-2.609V352.73L179.777,251.389c-4.7-.13-9.391-.065-14.647-.065l.183.235,5.96,7.134c-.13,34.211-.078,79.56-.078,113.471h2.713V261.836L267.123,373.22V320.763C267.214,298.551,267.228,273.548,267.162,251.337Z" transform="translate(-140.036 -250.254)" fill="#fff" stroke="#fff" stroke-width="1"/>
    <path id="path_1" data-name="path 1" d="M145.89,251.33h11.882V371.974H145.955Z" transform="translate(-145.89 -250.248)" fill="#fff" stroke="#fff" stroke-width="1"/>
  </g>
</svg>
